<svg xmlns="http://www.w3.org/2000/svg" viewBox="0 0 128 144" role="img" aria-labelledby="title"><title id="title">Sprint · Tozeur → Douz · Largada en Túnez · Arena</title><defs><linearGradient id="metal" x2=".9" y2="1"><stop stop-color="#f2e6cb"/><stop offset=".27" stop-color="#657681"/><stop offset=".56" stop-color="#e6eaf0"/><stop offset="1" stop-color="#596774"/></linearGradient><linearGradient id="face" x2="0" y2="1"><stop stop-color="#253139"/><stop offset="1" stop-color="#0b1219"/></linearGradient><clipPath id="face-clip"><path d="M8 18L64 4L120 18V102Q111 126 64 139Q17 126 8 102Z"/></clipPath></defs><path d="M8 18L64 4L120 18V102Q111 126 64 139Q17 126 8 102Z" fill="url(#face)" stroke="url(#metal)" stroke-width="4"/><path d="M14 23L64 11L114 23V100Q101 121 64 132Q27 121 14 100Z" fill="none" stroke="#f79a50" opacity=".75"/><g clip-path="url(#face-clip)"><path d="M9 33H119" stroke="#f79a50" opacity=".35"/><circle cx="91" cy="43" r="9" fill="#f79a50" opacity=".9"/><path d="M18 69Q51 39 76 67T110 62V92H18Z" fill="#f79a50" opacity=".35"/><path d="M18 81Q55 57 90 77L110 70V93H18Z" fill="#f79a50"/><path d="M22 78Q47 62 72 76" fill="none" stroke="#fff5df" stroke-width="2"/><path d="M24 85C43 83 79 89 84 75S55 64 70 56" fill="none" stroke="#0b1219" stroke-width="5"/><path d="M24 85C43 83 79 89 84 75S55 64 70 56" fill="none" stroke="#f5f1df" stroke-width="2.5" stroke-linecap="round"/><circle cx="70" cy="56" r="3" fill="#f79a50"/><rect x="40" y="93" width="48" height="37" rx="3" fill="#080d12" stroke="url(#metal)" stroke-width="1.5"/><svg x="42" y="95" width="44" height="33" xmlns="http://www.w3.org/2000/svg" id="flag-icons-tn" viewBox="0 0 640 480">
  <path fill="#e70013" d="M0 0h640v480H0z"/>
  <path fill="#fff" d="M320 119.2a1 1 0 0 0-1 240.3 1 1 0 0 0 1-240.3M392 293a90 90 0 1 1 0-107 72 72 0 1 0 0 107m-4.7-21.7-37.4-12.1-23.1 31.8v-39.3l-37.4-12.2 37.4-12.2V188l23.1 31.8 37.4-12.1-23.1 31.8z"/>
</svg>
</g><text x="64" y="27" text-anchor="middle" fill="#f3f0e7" font-family="Arial,sans-serif" font-size="10" font-weight="800" letter-spacing="1">TOZEUR</text><path d="M19 104l9 10M109 104l-9 10" stroke="#f79a50" stroke-width="2"/></svg>
