<svg xmlns="http://www.w3.org/2000/svg" viewBox="0 0 100 100" role="img" aria-label="Zorro"><title>Zorro · Apex1000</title><defs><linearGradient id="chrome" x1=".1" y1="0" x2=".85" y2="1"><stop stop-color="#f6f8fc"/><stop offset=".18" stop-color="#9ba7b3"/><stop offset=".38" stop-color="#fff"/><stop offset=".49" stop-color="#b9c5d2"/><stop offset=".52" stop-color="#485669"/><stop offset=".7" stop-color="#b4c1d0"/><stop offset="1" stop-color="#eef3fa"/></linearGradient><linearGradient id="enamel" x2=".7" y2="1"><stop stop-color="#b7bfc9"/><stop offset=".46" stop-color="#303b47"/><stop offset="1" stop-color="#0a111b"/></linearGradient><linearGradient id="shine" x2="0" y2="1"><stop stop-color="#fff" stop-opacity=".3"/><stop offset="1" stop-color="#fff" stop-opacity="0"/></linearGradient><clipPath id="plate"><path d="M50 7 84 19V50Q83 73 50 91Q17 73 16 50V19Z"/></clipPath></defs><path d="M50 7 84 19V50Q83 73 50 91Q17 73 16 50V19Z" transform="translate(0 1.5)" fill="#050a11" stroke="#050a11" stroke-width="3"/><path d="M50 7 84 19V50Q83 73 50 91Q17 73 16 50V19Z" fill="url(#enamel)" stroke="url(#chrome)" stroke-width="4"/><path d="M50 7 84 19V50Q83 73 50 91Q17 73 16 50V19Z" transform="translate(5 5) scale(.9)" fill="none" stroke="#d6e7fa" stroke-opacity=".35" stroke-width=".8"/><path d="M3 8H97V32Q48 51 3 40Z" fill="url(#shine)" clip-path="url(#plate)"/><path d="M22 25 42 38 51 32 62 39 81 27 71 56 50 78 30 60Z M30 45 46 53 49 67 37 57Z M70 45 54 53 51 67 63 57Z" transform="translate(0 1.1)" fill="#01050a" fill-rule="evenodd" stroke="#050a10" stroke-width="1.2"/><path d="M22 25 42 38 51 32 62 39 81 27 71 56 50 78 30 60Z M30 45 46 53 49 67 37 57Z M70 45 54 53 51 67 63 57Z" fill="url(#chrome)" fill-rule="evenodd" stroke="#edf4ff" stroke-opacity=".65" stroke-width=".55" stroke-linejoin="round"/></svg>
