<svg xmlns="http://www.w3.org/2000/svg" xmlns:xlink="http://www.w3.org/1999/xlink" width="100" height="100" viewBox="0 0 100 100" role="img" aria-label="Bandera de China">
  <rect width="100" height="100" rx="20" fill="#0b1e2d"/><rect x="5" y="15.5" width="90" height="69" rx="7" fill="#091722"/>
  <g transform="translate(6 17) scale(.1375)">
  <defs>
    <path id="cn-a" fill="#ff0" d="M-.6.8 0-1 .6.8-1-.3h2z"/>
  </defs>
  <path fill="#ee1c25" d="M0 0h640v480H0z"/>
  <use xlink:href="#cn-a" width="30" height="20" transform="matrix(71.9991 0 0 72 120 120)"/>
  <use xlink:href="#cn-a" width="30" height="20" transform="matrix(-12.33562 -20.5871 20.58684 -12.33577 240.3 48)"/>
  <use xlink:href="#cn-a" width="30" height="20" transform="matrix(-3.38573 -23.75998 23.75968 -3.38578 288 95.8)"/>
  <use xlink:href="#cn-a" width="30" height="20" transform="matrix(6.5991 -23.0749 23.0746 6.59919 288 168)"/>
  <use xlink:href="#cn-a" width="30" height="20" transform="matrix(14.9991 -18.73557 18.73533 14.99929 240 216)"/>
</g><rect x="5" y="15.5" width="90" height="69" rx="7" fill="none" stroke="#9db6c1" stroke-opacity=".55" stroke-width="2"/>
  <title>Bandera de China</title></svg>